/* XPM */
static const char *collectble[] = {
/* columns rows colors chars-per-pixel */
"64 64 46 1 ",
"  c #90625D",
". c #96705F",
"X c #9B6F66",
"o c #997A63",
"O c #9C7E61",
"+ c #9C7B66",
"@ c #9C7469",
"# c #A58C6F",
"$ c #A49667",
"% c #A89B66",
"& c #A19268",
"* c #A59E6B",
"= c #AA9B6A",
"- c #AB9D6B",
"; c #A7A46C",
": c #A9A369",
"> c #AEA968",
", c #B4B76B",
"< c #B7BE6C",
"1 c #AEB671",
"2 c #A4C263",
"3 c #BAC66E",
"4 c #BDCD6F",
"5 c #B2C273",
"6 c #B5C672",
"7 c #B9CB71",
"8 c #BACD71",
"9 c #BFD370",
"0 c #C0D470",
"q c #BC9881",
"w c #C1AA8E",
"e c #CBBA95",
"r c #D2B393",
"t c #D6C19D",
"y c #D7CCA2",
"u c #DACEA7",
"i c #E8CFA6",
"p c #ECDEB1",
"a c #E8EEAA",
"s c #E6E0B3",
"d c #E7E0B4",
"f c #EDE0B3",
"g c #ECE7B8",
"h c #F0E9B9",
"j c #F1EDBD",
"k c #F3F2C0",
/* pixels */
"0000000000000000000000000000000000000000000000000000000000000000",
"0000000000000000000000000000000000000000000000000000000000000000",
"0000000000000000000000000000000000000000000000000000000000000000",
"0000000000000000000000000000000000000000000000000000000000000000",
"0000000000000000000000000000000000000000000000000000000000220022",
"0000000000000000000000000000000000000000000000000000000000220022",
"0000000000000022000000000000000000000000220022000000000000002200",
"0000000000000022000000000000000000000000220022000000000000002200",
"0000000000002200000000000000000000000000002200000000000000000000",
"0000000000002200000000000000000000000000002200000000000000000000",
"0000000000002200000000000000000000000000000000000000000000000000",
"0000000000002200000000000000000000000000000000000000000000000000",
"0000000000000000000000000000000000000000000000000000000000000000",
"0000000000000000000000000000000000000000000000000000000000000000",
"2200000000000000000000000000000000000000000000000000000000000000",
"2200000000000000000000000000000000000000000000000000000000000000",
"2200000000220000000000000000000000000000000000000000000000000000",
"2200000000220000000000000000000000000000000000000000000000000000",
"0000000022000000000000000000000000000000000000000000000000000000",
"0000000022000000000000000000000000000000000000000000000000000000",
"0000000022000000000000000000220022000000000000000000000000000000",
"0000000022000000000000000000220022000000000000000000000000000000",
"0000000000000000000000000000002200000000000000000000000000000000",
"0000000000000000000000000000002200000000000000000000000000000000",
"0000000000000000000000000000333333300000000000000000000000000000",
"0000000000000000000000000000O     .00000000000000000000000000000",
"0000000000000000000000000000O     .00000000000000000000000000022",
"0000000000000000000000000000O     .00000000000000000000000000022",
"0000000000000000000000004OOOeuuuuuyOOO30000000000000000000000000",
"0000000000000000000000003   ukkkkks   30000000000000000000000000",
"0000000000000000000000003   ukkkkks   30000000000000000000000000",
"000000000000000000000<%%-wwwdkkkkkgqqq=%%,0000000000000000000000",
"000000000000000000000>  @kkkkkkkkkjiiiX  %0000000000000000000000",
"000000000000000000000>  @kkkkkkkkkjiiiX  %0000000000000000000000",
"000000000000000000000>  @kkkkkkkkkjiiiX  %0000000000000000000000",
"000000000000000000000>  @kkkkkkkkkjiiiX  %0000000000000000000000",
"000000000000000000000>  @kkkkkkkkkjiiiX  %0000000000000000000000",
"000000000000000000000>  @kkkkkkkkkjiiiX  %0000000000000000000000",
"000000000000000000000>  @kkkkkkkkkjiiiX  %00aa00aa00000000000000",
"000000000000000000000>  @kkkkkkkkkjiiiX  %00aa00aa00000000000000",
"000000000000000000000>  @kkkkkkkkkjiiiX  %0000aa0000000000000000",
"000000000000000000877:  @kkkkkkhffpiiiX  $7780aa0000000000000000",
"0000aa000000000000655*  @kkkkkkfiiiiiiX  &5560000000000000000000",
"0000aa000000000000655*  @kkkkkkfiiiiiiX  &5560000000000000000000",
"00aa00000000000000655;oo#uuuuuutrrrrrr+oo*5560000000000000000000",
"00aa000000000000006555551             15555560000000000000000000",
"00aa000000000000006555551             15555560000000000000000000",
"00aa000000000000006555551             15555560000000000000000000",
"00aa000000000000009998555111111111111155579990000000000000000000",
"00aa000000000000000008555555555555555555570000000000000000000000",
"0000000000aa0000000008555555555555555555570000000000000000000000",
"0000000000aa0000000009888888888888888888890000000000000000000000",
"000000000000aa0000000000000000aa00aa0000000000000000000000000000",
"000000000000aa0000000000000000aa00aa0000000000000000000000000000",
"000000000000aa000000000000000000aa000000000000000000000000000000",
"000000000000aa000000000000000000aa000000000000000000000000000000",
"000000000000aa00000000000000000000000000000000000000000000000000",
"000000000000aa00000000000000000000000000000000000000000000000000",
"0000000000000000000000000000000000000000000000000000000000000000",
"0000000000000000000000000000000000000000000000000000000000000000",
"0000000000000000000000000000000000000000000000000000000000000000",
"0000000000000000000000000000000000000000000000000000000000000000",
"0000000000000000000000000000000000000000000000000000000000000000",
"0000000000000000000000000000000000000000000000000000000000000000"
};
