/* XPM */
static const char *player[] = {
/* columns rows colors chars-per-pixel */
"64 64 10 1 ",
"  c #A4C263",
". c #C0D470",
"X c #EAE178",
"o c #5C4E92",
"O c #766DAA",
"+ c #E8B5AC",
"@ c #E8EEAA",
"# c #DDD5DE",
"$ c #F3D8C5",
"% c #F3F2C0",
/* pixels */
"............oooooooooooo................oooooooooooo............",
"............oooooooooooo................oooooooooooo............",
"............oooooooooooo................oooooooooooo............",
"............oooooooooooo................oooooooooooo............",
"........oooo%%%%%%%%%%%%oooo........oooo%%%%%%%%%%%%oooo..  ..  ",
"........oooo%%%%%%%%%%%%oooo........oooo%%%%%%%%%%%%oooo..  ..  ",
"........oooo%%%%%%%%%%%%oooo........oooo%%%%%%%%%%%%oooo....  ..",
"........oooo%%%%%%%%%%%%oooo........oooo%%%%%%%%%%%%oooo....  ..",
"........oooo++++++++%%%%oooooooooooooooo%%%%++++++++oooo........",
"........oooo++++++++%%%%oooooooooooooooo%%%%++++++++oooo........",
"........oooo++++++++%%%%oooooooooooooooo%%%%++++++++oooo........",
"........oooo++++++++%%%%oooooooooooooooo%%%%++++++++oooo........",
"........oooo++++++++%%%%################%%%%++++++++oooo........",
"........oooo++++++++%%%%################%%%%++++++++oooo........",
"  ......oooo++++++++%%%%################%%%%++++++++oooo........",
"  ......oooo++++++++%%%%################%%%%++++++++oooo........",
"  ......oooo%%%%%%%%%%%%################%%%%%%%%%%%%oooo........",
"  ......oooo%%%%%%%%%%%%################%%%%%%%%%%%%oooo........",
"........oooo%%%%%%%%%%%%################%%%%%%%%%%%%oooo........",
"........oooo%%%%%%%%%%%%################%%%%%%%%%%%%oooo........",
"........oooo%%%%%%%%%%%%################%%%%%%%%%%%%oooo........",
"........oooo%%%%%%%%%%%%################%%%%%%%%%%%%oooo........",
"........oooo%%%%%%%%%%%%################%%%%%%%%%%%%oooo........",
"........oooo%%%%%%%%%%%%################%%%%%%%%%%%%oooo........",
"....oooooooo%%%%%%%%%%%%%%%%%%%%%%%%%%%%%%%%%%%%%%%%oooooooo....",
"....oooooooo%%%%%%%%%%%%%%%%%%%%%%%%%%%%%%%%%%%%%%%%oooooooo....",
"....oooooooo%%%%%%%%%%%%%%%%%%%%%%%%%%%%%%%%%%%%%%%%oooooooo..  ",
"....oooooooo%%%%%%%%%%%%%%%%%%%%%%%%%%%%%%%%%%%%%%%%oooooooo..  ",
"........oooo%%%%oooo%%%%%%%%%%%%%%%%%%%%%%%%oooo%%%%oooo........",
"........oooo%%%%oooo%%%%%%%%%%%%%%%%%%%%%%%%oooo%%%%oooo........",
"........oooo%%%%oooo%%%%%%%%%%%%%%%%%%%%%%%%oooo%%%%oooo........",
"........oooo%%%%oooo%%%%%%%%%%%%%%%%%%%%%%%%oooo%%%%oooo........",
"....oooooooo%%%%%%%%%%%%%%%%%%%%%%%%%%%%%%%%%%%%%%%%oooooooo....",
"....oooooooo%%%%%%%%%%%%%%%%%%%%%%%%%%%%%%%%%%%%%%%%oooooooo....",
"....oooooooo%%%%%%%%%%%%%%%%%%%%%%%%%%%%%%%%%%%%%%%%oooooooo....",
"....oooooooo%%%%%%%%%%%%%%%%%%%%%%%%%%%%%%%%%%%%%%%%oooooooo....",
"........oooo$$$$$$$$%%%%%%%%%%%%%%%%%%%%%%%%$$$$$$$$oooo........",
"........oooo$$$$$$$$%%%%%%%%%%%%%%%%%%%%%%%%$$$$$$$$oooo........",
"........oooo$$$$$$$$%%%%%%%%%%%%%%%%%%%%%%%%$$$$$$$$oooo........",
"........oooo$$$$$$$$%%%%%%%%%%%%%%%%%%%%%%%%$$$$$$$$oooo........",
"............ooooooooOOOOOOOOOOOOOOOOOOOOOOOOoooooooo............",
"............ooooooooOOOOOOOOOOOOOOOOOOOOOOOOoooooooo............",
"....@@......ooooooooOOOOOOOOOOOOOOOOOOOOOOOOoooooooo............",
"....@@......ooooooooOOOOOOOOOOOOOOOOOOOOOOOOoooooooo............",
"..@@....oooo####%%%%OOOOOOOOXXXX%%%%OOOOOOOO%%%%####oooo........",
"..@@....oooo####%%%%OOOOOOOOXXXX%%%%OOOOOOOO%%%%####oooo........",
"..@@....oooo####%%%%OOOOOOOOXXXX%%%%OOOOOOOO%%%%####oooo........",
"..@@....oooo####%%%%OOOOOOOOXXXX%%%%OOOOOOOO%%%%####oooo........",
"..@@....oooo####%%%%%%%%%%%%XXXXXXXX%%%%%%%%%%%%####oooo........",
"..@@....oooo####%%%%%%%%%%%%XXXXXXXX%%%%%%%%%%%%####oooo........",
"........oooo####%%%%%%%%%%%%XXXXXXXX%%%%%%%%%%%%####oooo........",
"........oooo####%%%%%%%%%%%%XXXXXXXX%%%%%%%%%%%%####oooo........",
"............oooooooo%%%%%%%%%%%%%%%%%%%%%%%%oooooooo............",
"............oooooooo%%%%%%%%%%%%%%%%%%%%%%%%oooooooo............",
"............oooooooo%%%%%%%%%%%%%%%%%%%%%%%%oooooooo............",
"............oooooooo%%%%%%%%%%%%%%%%%%%%%%%%oooooooo............",
"............@@..oooo########oooooooo########oooo................",
"............@@..oooo########oooooooo########oooo................",
"................oooo########oooooooo########oooo................",
"................oooo########oooooooo########oooo................",
"....................oooooooo........oooooooo....................",
"....................oooooooo........oooooooo....................",
"....................oooooooo........oooooooo....................",
"....................oooooooo........oooooooo...................."
};
