/* XPM */
static const char *wall[] = {
/* columns rows colors chars-per-pixel */
"64 64 16 1 ",
"  c #5F7A79",
". c #AB7959",
"X c #8A4A70",
"o c #A35B70",
"O c #BD757E",
"+ c #78A158",
"@ c #6E967C",
"# c #B68962",
"$ c #9AB267",
"% c #A4C263",
"& c #B2C273",
"* c #C0D470",
"= c #97BB8E",
"- c #D99A9A",
"; c #AED499",
": c #C2E09A",
/* pixels */
"********************                        %%********%%********",
"********************                        %%********%%********",
"****************%%**                        ********************",
"****************%%**                        ********************",
"************        ====;;;;::::::::;;;;====        ************",
"************        ====;;;;::::::::;;;;====        ************",
"************        ====;;;;::::::::;;;;====        ************",
"************        ====;;;;::::::::;;;;====        ************",
"********    ====;;;;;;;;;;;;::::::::;;;;;;;;;;;;====    ********",
"********    ====;;;;;;;;;;;;::::::::;;;;;;;;;;;;====    ********",
"%%%%%%%%    ====;;;;;;;;;;;;::::::::;;;;;;;;;;;;====    %%%%%%%%",
"%%%%%%%%    ====;;;;;;;;;;;;::::::::;;;;;;;;;;;;====    %%%%%%%%",
"%%%%    ====;;;;::::::::;;;;;;;;::::::::::::;;;;;;;;====    %%%%",
"%%%%    ====;;;;::::::::;;;;;;;;::::::::::::;;;;;;;;====    %%%%",
"++%%    ====;;;;::::::::;;;;;;;;::::::::::::;;;;;;;;====    %%++",
"++%%    ====;;;;::::::::;;;;;;;;::::::::::::;;;;;;;;====    %%++",
"..++    ;;;;;;;;::::::::;;;;;;;;::::ooooooooooooXXXX====    ++..",
"..++    ;;;;;;;;::::::::;;;;;;;;::::ooooooooooooXXXX====    ++..",
"##..    ;;;;;;;;::::::::;;;;;;;;::::ooooooooooooXXXX====    ..##",
"##..    ;;;;;;;;::::::::;;;;;;;;::::ooooooooooooXXXX====    ..##",
"    ====;;;;;;;;;;;;;;;;;;;;;;;;;;;;oooo----OOOOXXXX;;;;====    ",
"    ====;;;;;;;;;;;;;;;;;;;;;;;;;;;;oooo----OOOOXXXX;;;;====    ",
"    ====;;;;;;;;;;;;;;;;;;;;;;;;;;;;oooo----OOOOXXXX;;;;====    ",
"    ====;;;;;;;;;;;;;;;;;;;;;;;;;;;;oooo----OOOOXXXX;;;;====    ",
"    ========ooooooooooooXXXX;;;;;;;;XXXXOOOOOOOOXXXX========    ",
"    ========ooooooooooooXXXX;;;;;;;;XXXXOOOOOOOOXXXX========    ",
"    ========ooooooooooooXXXX;;;;;;;;XXXXOOOOOOOOXXXX========    ",
"    ========ooooooooooooXXXX;;;;;;;;XXXXOOOOOOOOXXXX========    ",
"    ========oooo----OOOOXXXX====;;;;====XXXXXXXX========    ####",
"    ========oooo----OOOOXXXX====;;;;====XXXXXXXX========    ####",
"    ========oooo----OOOOXXXX====;;;;====XXXXXXXX========    ++##",
"    ========oooo----OOOOXXXX====;;;;====XXXXXXXX========    ++##",
"##%%    ====XXXXOOOOOOOOXXXX================================    ",
"##%%    ====XXXXOOOOOOOOXXXX================================    ",
"%%%%    ====XXXXOOOOOOOOXXXX================================    ",
"%%%%    ====XXXXOOOOOOOOXXXX================================    ",
"    @@@@========XXXXXXXX================================@@@@    ",
"    @@@@========XXXXXXXX================================@@@@    ",
"    @@@@========XXXXXXXX================================@@@@    ",
"    @@@@========XXXXXXXX================================@@@@    ",
"    @@@@@@@@====@@@@====@@@@ooooooooooooXXXX@@@@@@@@@@@@@@@@    ",
"    @@@@@@@@====@@@@====@@@@ooooooooooooXXXX@@@@@@@@@@@@@@@@    ",
"    @@@@@@@@====@@@@====@@@@ooooooooooooXXXX@@@@@@@@@@@@@@@@    ",
"    @@@@@@@@====@@@@====@@@@ooooooooooooXXXX@@@@@@@@@@@@@@@@    ",
"    @@@@@@@@@@@@@@@@@@@@====oooo----OOOOXXXX========@@@@@@@@    ",
"    @@@@@@@@@@@@@@@@@@@@====oooo----OOOOXXXX========@@@@@@@@    ",
"    @@@@@@@@@@@@@@@@@@@@====oooo----OOOOXXXX========@@@@@@@@    ",
"    @@@@@@@@@@@@@@@@@@@@====oooo----OOOOXXXX========@@@@@@@@    ",
"&&$$    @@@@========@@@@@@@@XXXXOOOOOOOOXXXX@@@@@@@@@@@@    &&&&",
"&&$$    @@@@========@@@@@@@@XXXXOOOOOOOOXXXX@@@@@@@@@@@@    &&&&",
"&&&&    @@@@========@@@@@@@@XXXXOOOOOOOOXXXX@@@@@@@@@@@@    &&&&",
"&&&&    @@@@========@@@@@@@@XXXXOOOOOOOOXXXX@@@@@@@@@@@@    &&&&",
"&&&&&&&&@@@@@@@@@@@@@@@@@@@@@@@@XXXXXXXX@@@@@@@@@@@@@@@@&&&&&&&&",
"&&&&&&&&@@@@@@@@@@@@@@@@@@@@@@@@XXXXXXXX@@@@@@@@@@@@@@@@&&&&&&&&",
"&&&&&&&&@@@@@@@@@@@@@@@@@@@@@@@@XXXXXXXX@@@@@@@@@@@@@@@@&&&&&&&&",
"&&&&&&&&@@@@@@@@@@@@@@@@@@@@@@@@XXXXXXXX@@@@@@@@@@@@@@@@&&&&&&&&",
"****&&&&&&&&&&&&@@@@@@@@@@@@@@@@@@@@@@@@@@@@@@@@&&&&&&&&********",
"****&&&&&&&&&&&&@@@@@@@@@@@@@@@@@@@@@@@@@@@@@@@@&&&&&&&&********",
"****&&&&&&&&&&&&@@@@@@@@@@@@@@@@@@@@@@@@@@@@@@@@&&&&&&&&********",
"****&&&&&&&&&&&&@@@@@@@@@@@@@@@@@@@@@@@@@@@@@@@@&&&&&&&&********",
"********&&&&&&&&&&&&&&&&&&&&&&&&&&&&&&&&&&&&&&&&****************",
"********&&&&&&&&&&&&&&&&&&&&&&&&&&&&&&&&&&&&&&&&****************",
"********&&&&&&&&&&&&&&&&&&&&&&&&&&&&&&&&&&&&&&&&****************",
"********&&&&&&&&&&&&&&&&&&&&&&&&&&&&&&&&&&&&&&&&****************"
};
